<svg width="29" height="27" viewBox="0 0 29 27" fill="none" xmlns="http://www.w3.org/2000/svg">
<path d="M3 27C2.175 27 1.46875 26.7062 0.88125 26.1187C0.29375 25.5312 0 24.825 0 24V3C0 2.175 0.29375 1.46875 0.88125 0.88125C1.46875 0.29375 2.175 0 3 0H24C24.825 0 25.5312 0.29375 26.1187 0.88125C26.7062 1.46875 27 2.175 27 3H15C13.225 3 11.7812 3.55625 10.6687 4.66875C9.55625 5.78125 9 7.225 9 9V18C9 19.775 9.55625 21.2188 10.6687 22.3312C11.7812 23.4437 13.225 24 15 24H27C27 24.825 26.7062 25.5312 26.1187 26.1187C25.5312 26.7062 24.825 27 24 27H3ZM15 21C14.175 21 13.4688 20.7062 12.8813 20.1187C12.2938 19.5312 12 18.825 12 18V9C12 8.175 12.2938 7.46875 12.8813 6.88125C13.4688 6.29375 14.175 6 15 6H25.5C26.325 6 27.0312 6.29375 27.6187 6.88125C28.2062 7.46875 28.5 8.175 28.5 9V18C28.5 18.825 28.2062 19.5312 27.6187 20.1187C27.0312 20.7062 26.325 21 25.5 21H15ZM19.5 15.75C20.15 15.75 20.6875 15.5375 21.1125 15.1125C21.5375 14.6875 21.75 14.15 21.75 13.5C21.75 12.85 21.5375 12.3125 21.1125 11.8875C20.6875 11.4625 20.15 11.25 19.5 11.25C18.85 11.25 18.3125 11.4625 17.8875 11.8875C17.4625 12.3125 17.25 12.85 17.25 13.5C17.25 14.15 17.4625 14.6875 17.8875 15.1125C18.3125 15.5375 18.85 15.75 19.5 15.75Z" fill="#0D631B"/>
</svg>
